<svg id="Layer_1" data-name="Layer 1" xmlns="http://www.w3.org/2000/svg" width="325.5" height="116.92" viewBox="0 0 325.5 116.92"><title>USA TODAY logo - Brandlogos.net</title><circle cx="58.46" cy="58.46" r="58.46" style="fill:#009bff"/><path d="M371.58,370.43a6.39,6.39,0,0,0,4.93-1.88,7.6,7.6,0,0,0,1.59-5.43V339.86h10.56v23.26A15.45,15.45,0,0,1,384.1,375,20.88,20.88,0,0,1,359,375a15.45,15.45,0,0,1-4.84-11.9V339.86h10.56v23.26a7.56,7.56,0,0,0,1.75,5.34A6.35,6.35,0,0,0,371.58,370.43Zm38.17,8.81a25.43,25.43,0,0,1-8.94-1.63,22,22,0,0,1-7.52-4.64l5.09-6.43a17.41,17.41,0,0,0,5.09,3.22,16.24,16.24,0,0,0,6.26,1.17,6.85,6.85,0,0,0,3.59-.79,2.63,2.63,0,0,0,1.29-2.38,2.8,2.8,0,0,0-1.55-2.46,22.34,22.34,0,0,0-5.43-2.17l-2.38-.63a16.7,16.7,0,0,1-7.93-4.18,9.81,9.81,0,0,1-2.71-7.14,11.07,11.07,0,0,1,2-6.26,12.53,12.53,0,0,1,5.34-4.18,19.38,19.38,0,0,1,7.89-1.5,22.47,22.47,0,0,1,8.35,1.63,24.3,24.3,0,0,1,7.14,4.3l-5.26,6.64a21.17,21.17,0,0,0-4.8-3,12.53,12.53,0,0,0-5.47-1.29,6.6,6.6,0,0,0-3.51.75,2.51,2.51,0,0,0-1.34,2.38,2.92,2.92,0,0,0,1.29,2.34,13.15,13.15,0,0,0,4.51,1.84l2.88.79a17.75,17.75,0,0,1,8.81,4.68,10.11,10.11,0,0,1,2.59,6.89,11.07,11.07,0,0,1-1.92,6.43,12.53,12.53,0,0,1-5.39,4.18A19.75,19.75,0,0,1,409.74,379.24Zm47.27-.75-2.46-7H440.1l-2.42,7.22H427.24l14.16-38.63h12.28l13.95,38.42Zm-14.45-15h9.14l-4.34-13.53ZM365.69,428V397.86H354.21v-8.35h33.41v8.35H376.25V428Zm44.14.75a20.54,20.54,0,0,1-10.31-2.55,18.75,18.75,0,0,1-7.06-7.1,20.34,20.34,0,0,1-2.63-10.36,21.51,21.51,0,0,1,1.42-8,18.71,18.71,0,0,1,4.18-6.35,19.25,19.25,0,0,1,6.35-4.18,22.47,22.47,0,0,1,16,0,19.29,19.29,0,0,1,6.35,4.18,18.67,18.67,0,0,1,4.18,6.35,21.42,21.42,0,0,1,1.75,8,20.34,20.34,0,0,1-2.59,10.36,18.75,18.75,0,0,1-7.14,7.06A20.54,20.54,0,0,1,409.83,428.72Zm0-8.73a8.35,8.35,0,0,0,4.84-1.42,9.6,9.6,0,0,0,3.26-4,13.61,13.61,0,0,0,1.21-5.89,13.82,13.82,0,0,0-1.21-5.89,9.81,9.81,0,0,0-3.26-4.18,8.85,8.85,0,0,0-9.73,0,9.81,9.81,0,0,0-3.26,4.18,13.82,13.82,0,0,0-1.21,5.89,13.61,13.61,0,0,0,1.21,5.89,9.6,9.6,0,0,0,3.26,4,8.35,8.35,0,0,0,4.89,1.38Zm26.1,8V389.34h15.24a20.38,20.38,0,0,1,10.15,2.46,18,18,0,0,1,6.89,6.81,21.38,21.38,0,0,1,0,20,18,18,0,0,1-6.89,6.81,20.38,20.38,0,0,1-10.15,2.46Zm10.4-8.35h4.84a8,8,0,0,0,6.56-3,14.21,14.21,0,0,0,0-15.87,8,8,0,0,0-6.56-3h-4.84ZM501.86,428l-2.42-7.22H484.95L482.53,428H472.09l14.16-38.63h12.28L512.68,428Zm-14.24-15h9.23l-4.55-13.53Zm45.43,1.13V428H522.32V414.07l-13.7-24.72h11.94l7.14,15.53,7.1-15.33h11.94Z" transform="translate(-221.25 -325.54)" style="fill:#404040"/></svg>